<?xml version="1.0" encoding="utf-8"?>
<!-- Generator: Adobe Illustrator 24.1.0, SVG Export Plug-In . SVG Version: 6.00 Build 0)  -->
<svg version="1.1" id="Capa_1" xmlns="http://www.w3.org/2000/svg" xmlns:xlink="http://www.w3.org/1999/xlink" x="0px" y="0px"
	 viewBox="0 0 600 600" style="enable-background:new 0 0 600 600;" xml:space="preserve">
<style type="text/css">
	.st0{fill:none;stroke:#7F5200;stroke-width:24;stroke-miterlimit:10;}
</style>
<g id="Layer_2">
	<path class="st0" d="M372,227.6c47.6,47.6,85,98.7,106.9,143.6c26.4,54,30.1,99.7,11.1,118.7c-19.8,19.8-68.3,15.9-125.7-13
		c-43.4-21.8-92-59.1-137.2-104.3c-46.4-46.4-84.9-95.5-106.7-139.8c-27.5-56-30.1-103.7-10.6-123.2c18.8-18.8,63.2-16.1,116.7,9.8
		C271.6,141.2,323.9,179.5,372,227.6z"/>
	<path class="st0" d="M272.9,201.1c65.1-17.5,128-24.4,177.8-20.9c60,4.2,101.4,23.7,108.4,49.7c7.3,27-20.3,67.1-74.1,102.4
		c-40.6,26.7-97.2,50.2-158.9,66.8c-63.3,17-125.2,25.9-174.4,22.6c-62.3-4.2-104.9-25.8-112-52.3c-6.9-25.7,17.7-62.8,66.8-96.2
		C147.9,244.9,207.2,218.8,272.9,201.1z"/>
	<path class="st0" d="M200.5,273.7c17.4-65.1,42.8-123.1,70.7-164.5c33.6-49.9,71.2-76,97.2-69.1c27,7.2,47.9,51.1,51.8,115.3
		c2.9,48.5-5.1,109.3-21.5,171c-16.9,63.3-40.1,121.4-67.6,162.4c-34.7,51.9-74.7,78-101.3,70.9c-25.7-6.9-45.6-46.7-50-105.9
		C176,403.9,182.9,339.4,200.5,273.7z"/>
</g>
</svg>
